# xmcd
#
# Track frame offsets:
#	150
#	15086
#	28572
#	43761
#	59532
#	75161
#	93626
#	109623
#	123932
#	138188
#	152756
#	168024
#	183302
#	193560
#	209409
#	223340
#	239632
#	253517
#	267658
#	281426
#
# Disc length: 3933 seconds
#
# Revision: 0
# Processed by: cddbd v1.5.2PL0 Copyright (c) Steve Scherf et al.
# Submitted via: EZCDAudioConverter 5.4.0.1
#
DISCID=130f5b14
DTITLE=Jamppa Tuominen - 40 Unohtumatonta
DYEAR=1900
DGENRE=
TTITLE0=Yritetään Yhdessä Vielä
TTITLE1=Jos ystävään luottaa voit
TTITLE2=Kesätuuli
TTITLE3=Kesätuuli
TTITLE4=Kuin Tarpeeton Oisin
TTITLE5=Yön varjossa
TTITLE6=Jos Oisit Tyttöni Vielä
TTITLE7=Asfalttikukka
TTITLE8=Pohjoisen Laulu
TTITLE9=Tähdenlento
TTITLE10=Sylikkäin
TTITLE11=Joopa Joo
TTITLE12=Kukka kämmenellä
TTITLE13=Aamu Toi, Ilta Vei
TTITLE14=Tästä lähtien
TTITLE15=Vain Yksi Päivä
TTITLE16=Kuivaa kyyneleet
TTITLE17=Rakkaat muistot
TTITLE18=Lauluni Teille Lauloin
TTITLE19=Ystävälle
EXTD=
EXTT0=
EXTT1=
EXTT2=
EXTT3=
EXTT4=
EXTT5=
EXTT6=
EXTT7=
EXTT8=
EXTT9=
EXTT10=
EXTT11=
EXTT12=
EXTT13=
EXTT14=
EXTT15=
EXTT16=
EXTT17=
EXTT18=
EXTT19=
PLAYORDER=
